<mxfile host="app.diagrams.net" modified="2022-09-14T11:39:42.528Z" agent="5.0 (Windows NT 10.0; Win64; x64) AppleWebKit/537.36 (KHTML, like Gecko) Chrome/105.0.0.0 Safari/537.36" etag="wsqzW7HjIP7DTaB2yedt" version="20.3.0" type="github">
  <diagram id="NDN6DlutMcUfRgBOW-Y0" name="Page-1">
    <mxGraphModel dx="1038" dy="539" grid="1" gridSize="10" guides="1" tooltips="1" connect="1" arrows="1" fold="1" page="1" pageScale="1" pageWidth="850" pageHeight="1100" math="0" shadow="0">
      <root>
        <mxCell id="0" />
        <mxCell id="1" parent="0" />
        <mxCell id="Js8eE1OxSrGnyb4yW5ET-4" style="edgeStyle=orthogonalEdgeStyle;rounded=0;orthogonalLoop=1;jettySize=auto;html=1;exitX=0.5;exitY=1;exitDx=0;exitDy=0;entryX=0.5;entryY=0;entryDx=0;entryDy=0;" edge="1" parent="1" source="Js8eE1OxSrGnyb4yW5ET-2" target="Js8eE1OxSrGnyb4yW5ET-3">
          <mxGeometry relative="1" as="geometry" />
        </mxCell>
        <mxCell id="Js8eE1OxSrGnyb4yW5ET-2" value="Start" style="ellipse;whiteSpace=wrap;html=1;" vertex="1" parent="1">
          <mxGeometry x="360" y="40" width="120" height="80" as="geometry" />
        </mxCell>
        <mxCell id="Js8eE1OxSrGnyb4yW5ET-6" style="edgeStyle=orthogonalEdgeStyle;rounded=0;orthogonalLoop=1;jettySize=auto;html=1;entryX=0.5;entryY=0;entryDx=0;entryDy=0;" edge="1" parent="1" source="Js8eE1OxSrGnyb4yW5ET-3" target="Js8eE1OxSrGnyb4yW5ET-5">
          <mxGeometry relative="1" as="geometry" />
        </mxCell>
        <mxCell id="Js8eE1OxSrGnyb4yW5ET-3" value="From which date we need Data for new combination" style="rounded=1;whiteSpace=wrap;html=1;" vertex="1" parent="1">
          <mxGeometry x="320" y="180" width="200" height="70" as="geometry" />
        </mxCell>
        <mxCell id="Js8eE1OxSrGnyb4yW5ET-13" style="edgeStyle=orthogonalEdgeStyle;rounded=0;orthogonalLoop=1;jettySize=auto;html=1;exitX=0.5;exitY=1;exitDx=0;exitDy=0;entryX=0.5;entryY=0;entryDx=0;entryDy=0;" edge="1" parent="1" source="Js8eE1OxSrGnyb4yW5ET-5" target="Js8eE1OxSrGnyb4yW5ET-7">
          <mxGeometry relative="1" as="geometry" />
        </mxCell>
        <mxCell id="Js8eE1OxSrGnyb4yW5ET-5" value="loop over the list of suitable tables for that combination&amp;nbsp;" style="rounded=0;whiteSpace=wrap;html=1;" vertex="1" parent="1">
          <mxGeometry x="320" y="310" width="200" height="60" as="geometry" />
        </mxCell>
        <mxCell id="Js8eE1OxSrGnyb4yW5ET-9" style="edgeStyle=orthogonalEdgeStyle;rounded=0;orthogonalLoop=1;jettySize=auto;html=1;exitX=0.5;exitY=1;exitDx=0;exitDy=0;entryX=0.5;entryY=0;entryDx=0;entryDy=0;" edge="1" parent="1" source="Js8eE1OxSrGnyb4yW5ET-7" target="Js8eE1OxSrGnyb4yW5ET-8">
          <mxGeometry relative="1" as="geometry" />
        </mxCell>
        <mxCell id="Js8eE1OxSrGnyb4yW5ET-7" value="Loop over all the file&amp;nbsp;" style="rounded=1;whiteSpace=wrap;html=1;" vertex="1" parent="1">
          <mxGeometry x="320" y="440" width="200" height="60" as="geometry" />
        </mxCell>
        <mxCell id="Js8eE1OxSrGnyb4yW5ET-15" style="edgeStyle=orthogonalEdgeStyle;rounded=0;orthogonalLoop=1;jettySize=auto;html=1;entryX=0.5;entryY=0;entryDx=0;entryDy=0;" edge="1" parent="1" source="Js8eE1OxSrGnyb4yW5ET-8" target="Js8eE1OxSrGnyb4yW5ET-14">
          <mxGeometry relative="1" as="geometry" />
        </mxCell>
        <mxCell id="Js8eE1OxSrGnyb4yW5ET-8" value="Insert the data into appropriate combination table" style="rounded=1;whiteSpace=wrap;html=1;" vertex="1" parent="1">
          <mxGeometry x="320" y="560" width="200" height="60" as="geometry" />
        </mxCell>
        <mxCell id="Js8eE1OxSrGnyb4yW5ET-14" value="The End" style="ellipse;whiteSpace=wrap;html=1;" vertex="1" parent="1">
          <mxGeometry x="360" y="690" width="120" height="80" as="geometry" />
        </mxCell>
      </root>
    </mxGraphModel>
  </diagram>
</mxfile>
